<?xml version="1.0" encoding="utf-8"?>
<!-- Generator: Adobe Illustrator 22.0.1, SVG Export Plug-In . SVG Version: 6.00 Build 0)  -->
<svg version="1.1" id="Слой_1" xmlns="http://www.w3.org/2000/svg" xmlns:xlink="http://www.w3.org/1999/xlink" x="0px" y="0px"
	 viewBox="0 0 55 55" style="enable-background:new 0 0 55 55;" xml:space="preserve">
<style type="text/css">
	.st0{fill:#7593C7;}
	.st1{fill:#414042;}
	.st2{fill:#FEFEFE;}
	.st3{fill:#92A7C5;}
	.st4{fill:#231F20;}
	.st5{fill:#272325;}
	.st6{fill:#262324;}
	.st7{fill:#282527;}
	.st8{fill:#242021;}
	.st9{fill:#262223;}
	.st10{fill:#282425;}
	.st11{fill:#252122;}
	.st12{fill:#242022;}
	.st13{fill:#252123;}
	.st14{fill:#262325;}
	.st15{fill:#398DCD;}
	.st16{fill:#3A8ECD;}
	.st17{fill:#FAFBFB;}
	.st18{fill:#398ECD;}
	.st19{fill:#FDFDFE;}
</style>
<circle class="st0" cx="27.61" cy="27.5" r="27.33"/>
<g>
	<path class="st1" d="M23.39,53.94c-0.04-0.24,0.13-0.36,0.31-0.37c1-0.07,1.44-0.73,1.7-1.58c0.04-0.13,0.04-0.13-0.06-0.16
		c-0.42,0.35-0.86,0.66-1.37,0.86c-0.67,0.27-1.37,0.45-2.1,0.46c-0.12,0-0.23-0.01-0.27-0.14c-0.04-0.13,0.05-0.19,0.15-0.25
		c0.53-0.31,0.79-0.79,0.87-1.38c0.08-0.24,0.06-0.47,0-0.71c-0.07-0.86-0.47-1.56-1.04-2.17c-0.65-0.69-1.33-1.34-2-2.01
		c-0.12-0.12-0.23-0.24-0.35-0.36c-0.04-0.06-0.1-0.11-0.15-0.16c-1.06-1.1-1.94-2.34-2.68-3.68c-0.05-0.1-0.09-0.21-0.16-0.3
		c-0.44-0.73-0.79-1.51-1.16-2.28c-0.61-1.29-1.12-2.62-1.67-3.94c-0.06-0.07-0.05-0.18-0.1-0.25c-0.18-0.46-0.4-0.91-0.54-1.38
		c-0.36-1.16-1.16-2.08-1.69-3.15c-0.4-0.8-0.84-1.58-1.23-2.38c-0.38-0.79-0.75-1.59-1.17-2.36c-0.23-0.41-0.56-0.77-0.76-1.21
		C7.8,24.77,7.69,24.49,7.6,24.2c-0.07-0.09-0.04-0.21-0.09-0.31c-0.04-0.35-0.13-0.69-0.11-1.05c0.01-0.17-0.05-0.2-0.21-0.14
		c-0.77,0.3-1.54,0.61-2.24,1.05c-0.08,0.05-0.16,0.09-0.24,0.14c-0.1,0.06-0.19,0.09-0.26-0.05c-0.07-0.14-0.05-0.21,0.08-0.28
		c0.03-0.01,1.57-0.8,1.67-0.89c0.28-0.17,0.59-0.27,0.9-0.38c0.2-0.07,0.28-0.19,0.31-0.4c0.09-0.66,0.25-1.29,0.56-1.89
		c0.08-0.09,0.13-0.2,0.15-0.32c0.34-0.82,0.82-1.55,1.38-2.23c0.07-0.07,0.13-0.14,0.18-0.23c0.22-0.31,0.52-0.55,0.79-0.89
		c-0.57-0.01-1.09-0.01-1.62,0c-0.44-0.02-2.51,0.27-2.98,0.35c-0.37,0.06-0.72,0.17-1.08,0.24c-0.12,0.02-0.24,0.06-0.32-0.06
		c-0.09-0.12-0.11-0.24,0-0.37c0.16-0.1,0.34-0.12,0.52-0.15c0.15,0,1.88-0.33,2.6-0.42c1.06-0.13,2.13-0.08,3.2-0.09
		c0.15,0,0.28-0.03,0.4-0.13c0.37-0.31,0.77-0.57,1.15-0.87c0.05-0.04,0.14-0.07,0.13-0.14c-0.02-0.09-0.12-0.07-0.19-0.08
		c-1.84-0.31-3.69-0.4-5.55-0.35c-0.49-0.02-0.97,0.03-1.45,0.12c-0.06,0.02-0.12,0.02-0.18,0.03c-0.06,0-0.11,0.02-0.17,0.03
		c-0.32,0.05-0.44-0.09-0.34-0.41c0.26-0.19,2.99-0.28,3.84-0.26c0.64,0.02,1.29,0.03,1.93,0.1c0.83,0.02,1.65,0.17,2.46,0.33
		c0.2,0.04,0.37,0.02,0.54-0.11c0.28-0.22,0.54-0.48,0.83-0.7c0.13-0.1,0.16-0.22,0.1-0.38c-0.06-0.14-0.12-0.28-0.14-0.43
		c-0.01-0.13-0.06-0.24-0.1-0.36c-0.36-1.42-0.39-2.86-0.25-4.31c0.17-0.86,0.55-2.32,1.05-2.97c0.23-0.3,0.53-0.51,0.89-0.61
		c0.32-0.09,0.63-0.07,0.95,0c0.59,0.11,1.06,0.44,1.51,0.82c0.66,0.55,1.24,1.18,1.84,1.79C20.05,7,20.1,7.06,20.17,7.11
		c0.27,0.27,0.56,0.54,0.79,0.84c0.1,0.13,0.18,0.14,0.32,0.06c0.36-0.2,0.72-0.39,1.1-0.54c0.17-0.05,0.05-0.12,0.02-0.18
		c-0.5-0.76-1.03-1.5-1.73-2.09c-0.56-0.48-1.18-0.87-1.89-1.09c-0.08-0.03-0.16-0.05-0.24-0.09c-0.16-0.09-0.16-0.23-0.12-0.37
		c0.05-0.17,0.17-0.12,0.29-0.09c1.22,0.35,2.21,1.05,3.02,2c0.41,0.48,0.8,0.98,1.1,1.53c0.07,0.13,0.17,0.18,0.31,0.14
		c0.18-0.04,0.37-0.03,0.55-0.02c0.25,0,0.46,0.08,0.63,0.26c0.02,0.02,0.02,0.05,0.04,0.07c0.01-0.02-0.01-0.04-0.01-0.06
		c-0.15-0.37-0.25-0.76-0.4-1.13c-0.01-0.07-0.03-0.13-0.08-0.18c-0.03-0.05-0.05-0.1-0.07-0.15c-0.02-0.07-0.04-0.14-0.11-0.19
		c-0.2-0.27-0.37-0.55-0.58-0.81c-0.04-0.08-0.1-0.15-0.18-0.2c-0.36-0.38-0.75-0.73-1.2-1.01c-0.23-0.14-0.23-0.16-0.05-0.38
		c0.06-0.05,0.12-0.09,0.2-0.08c0.38,0.13,0.66,0.39,0.95,0.65c0.74,0.67,1.31,1.46,1.68,2.4c0.02,0.14,0.08,0.26,0.15,0.38
		c0.08,0.19,0.11,0.39,0.16,0.58c0.04,0.15,0.12,0.2,0.27,0.19c0.36-0.02,0.71-0.12,1.07-0.13c1.02-0.04,2.03-0.05,3.05,0.01
		c0.28,0.02,0.57,0.02,0.85,0.1c0.17,0.05,0.25-0.04,0.29-0.22c0.38-1.53,1.19-2.77,2.45-3.71c0.15-0.11,0.31-0.2,0.48-0.28
		c0.02,0,0.03,0,0.05,0c0.24,0.31,0.24,0.31-0.08,0.52c-0.12,0.08-0.25,0.17-0.37,0.25c-0.06,0.04-0.1,0.11-0.16,0.14
		c-0.8,0.71-1.39,1.57-1.77,2.58C30.96,6.9,30.96,7,30.91,7.08c-0.02,0.13-0.05,0.26-0.07,0.39c-0.01,0.04-0.01,0.09,0.06,0.06
		c0.37-0.28,0.79-0.31,1.22-0.2c0.13,0.03,0.19,0.01,0.27-0.12c0.52-0.9,1.15-1.72,1.95-2.4c0.07-0.05,0.13-0.1,0.2-0.15
		c0.43-0.33,0.88-0.63,1.4-0.82c0.1-0.05,0.22-0.07,0.32-0.14c0.14-0.06,0.3-0.04,0.43-0.15c0.02,0.05,0.03,0.09,0.05,0.13
		c0.1,0.19,0.05,0.26-0.16,0.32c-0.74,0.22-1.4,0.61-2,1.11c-0.77,0.64-1.34,1.44-1.86,2.27c-0.07,0.09,0,0.14,0.07,0.17
		c0.07,0.03,0.13,0.05,0.2,0.08c0.4,0.1,0.74,0.33,1.09,0.53c0.35,0.2,0.34,0.19,0.57-0.08c0.69-0.81,1.46-1.56,2.22-2.31
		c0.06-0.04,0.11-0.1,0.15-0.15c0.46-0.41,0.92-0.82,1.47-1.1c0.63-0.33,1.45-0.47,2.11,0.14c0.04,0.06,0.1,0.11,0.15,0.16
		c0.61,0.79,0.82,1.73,0.96,2.69c0.15,1,0.16,2.01,0.07,3.02c-0.08,0.91-0.27,1.79-0.57,2.65c-0.07,0.19-0.04,0.29,0.1,0.41
		c0.27,0.23,0.55,0.44,0.83,0.65c0.09,0.07,0.18,0.08,0.28,0.06c0.77-0.17,1.55-0.27,2.34-0.35c0.06-0.04,2.11-0.17,3.07-0.11
		c0.59,0.04,1.19-0.01,1.78,0.11c0.22,0.02,0.44,0.04,0.65,0.06c0.05,0.04,0.11,0.02,0.17,0.02c0.14,0,0.26,0.02,0.24,0.22
		c-0.02,0.21-0.14,0.21-0.29,0.16c-0.06-0.02-0.11-0.02-0.17-0.04c-1.41-0.14-2.83-0.2-4.25-0.14c-0.59,0.02-1.17,0.09-1.75,0.14
		c-0.26,0.1-0.55,0.09-0.82,0.14c-0.17,0.02-0.33,0.05-0.5,0.07c-0.05,0.01-0.11,0-0.12,0.06c-0.01,0.06,0.05,0.09,0.08,0.11
		c0.26,0.19,0.53,0.38,0.79,0.57c0.07,0.03,0.12,0.09,0.16,0.15c0.13,0.11,0.27,0.22,0.39,0.33c0.11,0.09,0.22,0.13,0.37,0.13
		c0.52-0.01,1.04-0.01,1.57,0c1.42,0.02,2.83,0.21,4.22,0.52c0.04,0.01,0.08,0.03,0.12,0.04c0.04,0.03,0.09,0.02,0.14,0.02
		c0.17,0.02,0.28,0.09,0.17,0.28c0,0.02,0,0.03-0.01,0.05c-0.13,0.17-0.27,0.03-0.41,0.01c-0.32-0.07-0.64-0.14-0.96-0.22
		c-0.15-0.08-1.2-0.17-1.56-0.2c-0.97-0.14-1.94-0.12-2.91-0.12c-0.09,0-0.19,0-0.08,0.13c0.48,0.48,0.92,0.99,1.31,1.54
		c0.44,0.62,0.86,1.26,1.12,1.97c0.19,0.53,0.53,1.86,0.52,1.97c-0.01,0.21,0.05,0.37,0.28,0.42c0.59,0.26,1.19,0.47,1.76,0.76
		c0.3,0.16,0.6,0.31,0.88,0.5c0.07,0.05,0.2,0.08,0.09,0.2c-0.07,0.07-0.09,0.24-0.28,0.13c-0.42-0.27-0.86-0.5-1.32-0.71
		c-0.24-0.11-0.49-0.21-0.73-0.32c-0.12-0.05-0.24-0.09-0.36-0.14c-0.08-0.03-0.16-0.09-0.25-0.06c-0.02,0.23-0.06,0.47-0.07,0.7
		c0,0.09-0.03,0.18-0.07,0.26c-0.15,0.82-0.49,1.55-0.98,2.22c-0.05,0.05-0.11,0.09-0.14,0.16c-0.18,0.23-0.31,0.48-0.41,0.75
		c-0.06,0.1-0.1,0.21-0.15,0.3c-0.15,0.3-0.3,0.61-0.45,0.91c-0.06,0.06-0.06,0.14-0.11,0.2c-0.4,0.79-0.81,1.58-1.21,2.37
		c-0.04,0.05-0.05,0.11-0.1,0.16c-0.34,0.58-0.63,1.2-1.03,1.75c-0.11,0.15-0.19,0.34-0.3,0.51c-0.13,0.21-0.24,0.4-0.2,0.69
		c0.05,0.39-0.04,0.8-0.1,1.2c-0.1,0.67-0.26,1.33-0.47,1.97c-0.38,1.14-1.05,2.11-1.84,3.01c-0.14,0.16-0.27,0.32-0.4,0.48
		c-0.07,0.08-0.15,0.15-0.2,0.25c-0.98,1.13-1.98,2.24-2.71,3.56c-0.37,0.67-0.64,1.39-0.94,2.1c-0.28,0.66-0.66,1.27-1.06,1.86
		c-0.04,0.08-0.1,0.14-0.15,0.2c-0.72,0.93-1.52,1.78-2.43,2.51c-0.57,0.45-1.11,0.93-1.77,1.26c-0.22,0.11-0.48,0.28-0.7,0.08
		c-0.21-0.19-0.03-0.44,0.05-0.65c0.11-0.3,0.28-0.57,0.36-0.88c0.07-0.11,0.05-0.24,0.09-0.36c0.04-0.35,0.15-0.7,0.11-1.06
		c-0.01-0.06,0-0.13-0.06-0.15c-0.07-0.02-0.1,0.04-0.13,0.09c-0.17,0.26-0.35,0.5-0.47,0.78c-0.04,0.04-0.05,0.11-0.09,0.15
		c-0.48,0.86-0.99,1.71-1.68,2.44c-0.59,0.62-1.32,1-2.13,1.25c-0.25,0.07-0.5,0.13-0.75,0.2c-0.52,0.1-1.05,0.08-1.58,0.08
		C23.53,54.03,23.45,54,23.39,53.94z"/>
	<path class="st2" d="M15.7,30.91c-0.67-0.69-1.39-1.3-2.12-1.92c-0.07-0.03-0.1-0.1-0.17-0.14c-0.23-0.16-0.46-0.31-0.69-0.47
		c-0.07-0.04-0.13-0.11-0.21-0.15c-0.95-0.64-1.9-1.27-2.72-2.08c-0.65-0.64-1.11-1.39-1.36-2.27c-0.04-0.14-0.05-0.3-0.07-0.45
		c-0.1-0.37-0.11-0.74-0.04-1.11c0.68-0.2,1.37-0.37,2.06-0.5c0.51-0.09,1.01-0.21,1.52-0.26c0.06-0.04,1.78-0.18,2.07-0.2
		c0,0,0.85-0.08,1.27-0.11c0.56-0.04,1.12-0.01,1.68-0.01c0.1,0,0.2-0.01,0.23,0.13c0.4,0.99,0.92,1.93,1.56,2.79
		c0.32,0.44,0.66,0.88,1.07,1.25c0.04,0.06,0.1,0.11,0.15,0.15c0.45,0.48,1,0.83,1.57,1.16c0.08,0.05,0.17,0.1,0.26,0.14
		c0.58,0.26,1.19,0.47,1.81,0.62c0.64,0.12,1.02,0.18,1.31,0.2c0.17,0.01,0.33,0.04,0.46,0.15c0.32,0.15,0.51,0.45,0.81,0.63
		c0.33,0.21,0.66,0.39,1.04,0.49c0.57,0.15,1.08-0.01,1.57-0.28c0.35-0.2,0.67-0.45,0.96-0.73c0.07-0.06,0.12-0.14,0.22-0.16
		c0.34-0.15,0.7-0.1,1.05-0.16c0.2-0.07,0.42-0.04,0.62-0.14c1.12-0.24,2.15-0.69,3.07-1.38c0.08-0.04,0.14-0.1,0.2-0.16
		c0.15-0.13,0.3-0.27,0.45-0.4c0.05-0.05,0.1-0.1,0.15-0.15c0.27-0.32,0.54-0.64,0.81-0.95c0.05-0.07,0.11-0.13,0.15-0.2
		c0.57-0.77,1.04-1.6,1.45-2.46c0.03-0.07,0.04-0.14,0.07-0.22c0.14-0.33,0.14-0.33,0.48-0.33c0.54,0,1.07-0.01,1.61,0
		c0.4,0.01,0.8,0.03,1.19,0.11c1.82,0.09,3.6,0.41,5.35,0.87c0.1,0.04,0.22,0.03,0.31,0.1c0.1,0.36,0.07,0.73,0.02,1.09
		c-0.18,1.3-0.94,2.26-1.88,3.11c-0.94,0.84-2.01,1.52-3.01,2.28c-0.34,0.26-0.67,0.53-1,0.79c-0.06,0.06-0.14,0.1-0.19,0.17
		c-0.73,0.66-1.45,1.35-2.13,2.06c-0.11-0.02-0.09-0.08-0.05-0.15c0.52-0.88,1.07-1.74,1.72-2.53c0.02-0.07,0.09-0.11,0.14-0.17
		c0.53-0.69,1.13-1.32,1.8-1.89c0.33-0.28,0.67-0.55,1.08-0.83c-0.31-0.11-0.53-0.03-0.74,0.12c-0.85,0.6-1.61,1.31-2.29,2.1
		c-0.05,0.05-0.1,0.1-0.14,0.15c-0.41,0.49-0.8,1-1.16,1.52c-0.04,0.07-0.11,0.13-0.15,0.21c-0.91,1.36-1.71,2.79-2.49,4.24
		c-0.05,0.08-0.12,0.16-0.15,0.25c-0.42,0.68-0.85,1.37-1.27,2.05c-0.82,1.35-1.85,2.5-3.26,3.27c-0.1,0.06-0.21,0.09-0.32,0.14
		c-0.06,0.05-0.14,0.05-0.2,0.1c-0.15,0.07-0.3,0.14-0.45,0.21c-0.13,0.06-0.27,0.11-0.41,0.14c-0.15,0.01-0.28,0.13-0.44,0.11
		c-0.08,0.02-0.16,0.03-0.1-0.1c0.73-0.58,1.36-1.26,1.88-2.03c0.12-0.19,0.25-0.37,0.37-0.56c0.13-0.2,0.05-0.37-0.19-0.39
		c-0.3-0.03-0.55,0.06-0.72,0.34c-0.49,0.8-1.04,1.55-1.79,2.13c-0.07,0.05-0.13,0.1-0.2,0.15c-0.37,0.3-0.79,0.5-1.25,0.61
		c-0.52,0.14-1.03,0.11-1.55,0.02c-0.04-0.01-0.08-0.01-0.07-0.07c0.78-0.25,1.46-0.66,2.08-1.18c0.44-0.37,0.83-0.78,1.18-1.23
		c0.04-0.05,0.12-0.1,0.08-0.17c-0.04-0.07-0.12-0.04-0.19-0.03c-0.36,0.01-0.64,0.12-0.87,0.44c-0.54,0.74-1.21,1.36-2.06,1.75
		c-0.54,0.25-1.1,0.25-1.7,0.11c0.8-0.29,1.49-0.7,2.03-1.33c0.18-0.21,0.33-0.44,0.44-0.69c0.04-0.1,0.04-0.15-0.08-0.18
		c-0.36-0.08-0.68,0.1-0.87,0.43c-0.34,0.59-0.76,1.13-1.4,1.44c-0.07,0.04-0.15,0.05-0.21,0.09c-0.17,0.08-0.34,0.06-0.5,0
		c-0.12-0.05-0.25-0.06-0.36-0.14c-0.33-0.1-0.61-0.31-0.89-0.49c-0.72-0.46-1.35-1.03-1.88-1.69c-0.42-0.51-0.77-1.08-1.11-1.65
		c-0.4-0.68-0.81-1.36-1.25-2.02c-0.38-0.56-0.69-1.18-1.02-1.77c-0.82-1.44-1.7-2.83-2.78-4.09c-0.58-0.67-1.22-1.28-1.91-1.84
		c-0.07-0.02-0.11-0.1-0.17-0.14c-0.13-0.09-0.26-0.18-0.39-0.27c-0.1-0.07-0.2-0.06-0.3,0c-0.05,0.02-0.09,0.03-0.14,0.06
		c-0.2,0.11-0.21,0.18-0.02,0.31c0.67,0.47,1.28,1.01,1.84,1.6c0.05,0.05,0.09,0.1,0.14,0.14c0.27,0.32,0.57,0.62,0.81,0.97
		c0.06,0.05,0.08,0.12,0.14,0.16c0.35,0.43,0.66,0.9,0.97,1.36c0.04,0.05,0.02,0.08-0.03,0.11C15.8,31.01,15.76,30.96,15.7,30.91z"
		/>
	<path class="st2" d="M17.61,20.47c-0.15-0.42-0.28-0.84-0.36-1.27c-0.02-0.13-0.02-0.19,0.13-0.18c0.44,0,0.89-0.01,1.33,0.06
		c0.31,0.05,0.59-0.11,0.87-0.26c-0.33-0.2-1.34-0.19-3.07,0c-0.12,0.04-0.25,0.02-0.36,0.09c-0.58,0.18-1.13,0.41-1.61,0.79
		c-0.09,0.07,0.01,0.26,0.13,0.26c0.45,0.01,0.69-0.39,1.05-0.55c0.22-0.1,0.44-0.16,0.66-0.25c0.1-0.04,0.16-0.01,0.18,0.1
		c0.12,0.51,0.25,1.02,0.42,1.52c0.05,0.14-0.07,0.11-0.13,0.1c-0.79,0-1.58,0.02-2.37,0.08c-0.33,0.02-0.67,0.05-1,0.08
		c-0.28,0.08-0.58,0.03-0.87,0.09c-0.33,0.04-0.66,0.08-0.99,0.11c-0.24,0.04-1.65,0.25-1.83,0.34c-0.44,0.11-0.89,0.23-1.38,0.35
		c0.14-0.99,0.49-1.88,0.97-2.72c0.22-0.23,0.52-0.32,0.81-0.44c0.43-0.18,0.85-0.4,1.31-0.48c0.21,0.02,0.39,0.19,0.63,0.1
		c0.18-0.07,0.34-0.14,0.44-0.31c0.05-0.08,0.1-0.15,0.19-0.19c0.85-0.23,1.72-0.37,2.6-0.43c0.52-0.04,1.04-0.09,1.56-0.11
		c0.14,0,0.27-0.01,0.4,0.04c0.1,0.02,0.2,0.04,0.3,0.06c0.07,0.03,0.14,0.05,0.21,0.09c0.77,0.24,1.5,0.56,2.2,0.95
		c0.1,0.06,0.2,0.14,0.3,0c0.08-0.11,0.13-0.2-0.05-0.3c-0.43-0.24-0.87-0.46-1.33-0.64c-0.08-0.03-0.15-0.07-0.23-0.11
		c0.03-0.14,0.15-0.12,0.24-0.12c0.55-0.01,1.11-0.01,1.66,0c0.18,0,0.29,0.08,0.25,0.28c-0.02,0.1,0.04,0.19,0.05,0.29
		c0.09,0.14,0.12,0.3,0.22,0.44c0.18,0.39,0.45,0.71,0.71,1.05c0.14,0.05,0.22,0.17,0.31,0.28c0.23,0.28,0.52,0.5,0.74,0.78
		c0.04,0.07,0.1,0.12,0.17,0.16c0.62,0.59,1.32,1.08,2.04,1.54c0.05,0.05,0.12,0.09,0.19,0.12c0.07,0.03,0.14,0.05,0.2,0.09
		c0.06,0.04,0.13,0.07,0.18,0.12c0,0.01,0.01,0.02,0.01,0.03c0,0.01,0,0.03,0.01,0.04c0.11,0.07,0.24,0.11,0.37,0.15
		c0.06,0.02,0.12,0.04,0.19,0.06c0.12,0.05,0.24,0.11,0.37,0.14c0.57,0.14,1.15,0.2,1.73,0.07c0.16-0.03,0.32-0.08,0.48-0.11
		c0.08-0.04,0.18-0.03,0.25-0.1c0.1-0.04,0.2-0.08,0.3-0.11c0.05-0.03,0.11-0.05,0.16-0.09c0.09-0.05,0.2-0.06,0.26-0.16
		c0.29-0.27,0.68-0.4,0.98-0.66c0.09-0.07,0.18-0.15,0.29-0.2c0.09-0.03,0.16-0.09,0.22-0.15c0.66-0.52,1.25-1.11,1.83-1.71
		c0.08-0.05,0.13-0.11,0.17-0.19c0.02-0.03,0.6-0.67,0.82-1.01c0.15-0.23,0.28-0.47,0.33-0.74c0.06-0.43,0.06-0.43,0.52-0.43
		c0.47,0,0.93-0.01,1.4,0c0.11,0,0.24-0.04,0.29,0.12c-0.13,0.06-0.26,0.11-0.4,0.17c-0.09,0.04-0.17,0.1-0.27,0.13
		c-0.33,0.1-0.61,0.29-0.91,0.45c-0.08,0.04-0.21,0.07-0.13,0.21c0.07,0.12,0.13,0.25,0.3,0.12c0.04-0.07,1.66-0.78,2.42-1.05
		c0.11-0.04,0.23-0.05,0.34-0.07c0.44-0.08,0.89-0.05,1.32,0c0.77,0.09,1.55,0.11,2.31,0.29c0.09,0.02,0.18,0.03,0.27,0.06
		c0.12,0.07,0.25,0.1,0.39,0.1c0.15,0.02,0.28,0.07,0.39,0.18c0.32,0.41,0.53,0.48,1.02,0.31c0.04-0.01,0.08-0.02,0.12-0.03
		c0.45,0.06,0.84,0.29,1.25,0.45c0.07,0.05,0.15,0.09,0.23,0.11c0.2,0.07,0.39,0.14,0.54,0.3c0.38,0.61,0.65,1.26,0.86,1.94
		c0.07,0.22,0.11,0.45,0.17,0.68c0.03,0.14,0.01,0.16-0.13,0.12c-0.69-0.2-1.39-0.37-2.1-0.49c-1.41-0.25-2.84-0.4-4.28-0.48
		c-0.56-0.03-1.13-0.04-1.69-0.04c-0.36,0-0.36,0-0.26-0.35c0.06-0.13,0.08-0.28,0.14-0.41c0.06-0.22,0.12-0.44,0.17-0.66
		c0.03-0.12,0.07-0.17,0.2-0.12c0.42,0.16,0.84,0.32,1.18,0.65c0.2,0.2,0.71,0.14,0.89-0.09c0.11-0.13,0.04-0.23-0.06-0.32
		c-0.47-0.4-1.01-0.65-1.6-0.8c-0.82-0.22-1.66-0.25-2.5-0.21c-0.25,0.01-0.5,0.07-0.75,0.1c-0.1,0.01-0.17,0.07-0.24,0.12
		c-0.08,0.07-0.17,0.16-0.13,0.28c0.04,0.14,0.17,0.12,0.28,0.11c0.5-0.04,1.01-0.08,1.51-0.06c0.08,0,0.17,0,0.25,0.01
		c0.31,0.02,0.31,0.03,0.25,0.34c-0.09,0.44-0.26,0.86-0.39,1.29c-0.05,0.16-0.18,0.13-0.29,0.13c-0.62-0.01-1.22,0.08-1.84,0.1
		c-0.04,0.04-0.02,0.1-0.03,0.14c-0.02,0.18,0.05,0.22,0.23,0.21c0.49-0.03,0.99-0.07,1.48-0.08c0.18,0,0.24,0.06,0.13,0.23
		c-0.54,1.19-1.21,2.29-2.11,3.24c-0.05,0.05-0.11,0.1-0.15,0.16c-0.15,0.22-0.37,0.37-0.57,0.54c-0.07,0.05-0.13,0.11-0.2,0.16
		c-0.69,0.54-1.48,0.9-2.32,1.14c-0.85,0.24-1.73,0.34-2.61,0.36c-1.13,0.03-2.27,0-3.4,0c-0.26,0.02-1.15-0.13-1.43-0.13
		c-1.9-0.26-3.51-1.05-4.71-2.58c-0.06-0.07-0.12-0.14-0.18-0.21c-0.05-0.07-0.11-0.13-0.16-0.2c-0.62-0.81-1.14-1.68-1.52-2.63
		c0.02-0.12,0.11-0.07,0.17-0.07c0.5-0.01,0.99,0.05,1.48,0.07c0.18,0.01,0.26-0.03,0.26-0.2c0.04-0.18-0.08-0.16-0.19-0.16
		c-0.58-0.01-1.16-0.1-1.75-0.09c-0.06,0-0.14,0.02-0.18-0.05C17.7,20.71,17.66,20.59,17.61,20.47z"/>
	<path class="st2" d="M41.16,37.54c-0.24,0.62-0.61,1.17-1,1.7c-0.79,1.09-1.74,2.05-2.6,3.08c-0.79,0.94-1.42,1.98-1.89,3.12
		c-0.74,1.83-1.84,3.41-3.32,4.72c-0.13,0.12-0.26,0.24-0.39,0.36c-0.07,0.05-0.13,0.1-0.2,0.16c-0.33,0.26-0.66,0.52-1.07,0.77
		c0.12-0.5,0.31-0.95,0.37-1.42c0.1-0.46,0.17-0.91,0-1.37c-0.18-0.39-0.65-0.33-0.95-0.1c-0.43,0.34-0.7,0.8-0.96,1.27
		c-0.36,0.64-0.61,1.34-1.1,1.9c-0.22,0.25-0.45,0.49-0.69,0.72c-0.06,0.05-0.13,0.11-0.2,0.16c-0.19,0.15-0.39,0.29-0.61,0.4
		c-0.05,0.05-0.14,0.05-0.2,0.11c-0.39,0.19-0.79,0.33-1.3,0.4c0.53-0.5,0.82-1.05,0.98-1.67c0.07-0.18,0.06-0.37,0.11-0.55
		c0.1-0.45,0.12-0.91,0.12-1.37c0-0.16-0.11-0.21-0.26-0.21c-0.18,0.01-0.34,0.03-0.37,0.25c-0.05,0.39-0.16,0.77-0.38,1.11
		c-0.46,0.71-1.12,1.15-1.93,1.39c-0.06,0.02-0.12,0.04-0.19,0.06c-0.09,0.02-0.21,0.09-0.28,0.02c-0.08-0.09,0.09-0.16,0.09-0.25
		c0.02-0.07,0.05-0.15,0.07-0.22c0.06-0.12,0.08-0.25,0.13-0.37c0.3-1.35-0.02-2.53-1-3.51c-0.11-0.1-0.2-0.22-0.3-0.33
		c-0.06-0.04-0.1-0.1-0.16-0.15c-0.8-0.71-1.59-1.43-2.3-2.23c-1-1.11-1.78-2.37-2.52-3.66c-0.31-0.54-0.57-1.11-0.85-1.67
		c-0.03-0.07-0.08-0.13-0.12-0.19c-0.08-0.14-0.13-0.3-0.21-0.45c-0.02-0.19-0.16-0.33-0.21-0.5c-0.04-0.09-0.1-0.17-0.13-0.27
		c-0.32-0.78-0.64-1.55-0.97-2.33c-0.03-0.06-0.05-0.12-0.06-0.18c-0.04-0.06-0.06-0.14-0.1-0.21c-0.02-0.06-0.04-0.13-0.06-0.19
		c-0.04-0.07-0.16-0.15,0.01-0.21c1.19,1.3,2.62,2.34,3.94,3.49c0.06,0.04,0.1,0.1,0.16,0.14c0.31,0.28,0.63,0.55,0.94,0.83
		c0.05,0.05,0.09,0.11,0.16,0.15c0.84,0.8,1.68,1.6,2.52,2.39c0.41,0.38,0.82,0.77,1.26,1.11c0.05,0.05,0.09,0.11,0.16,0.14
		c0.32,0.28,0.67,0.52,1.01,0.77c0.06,0.03,0.11,0.08,0.17,0.11c0.04,0.03,0.09,0.06,0.13,0.08c0.84,0.55,1.71,1,2.75,1
		c0.62,0,1.22-0.12,1.81-0.36c1.76-0.71,3.09-1.99,4.43-3.26c0.39-0.37,0.78-0.74,1.17-1.12c0.11-0.07,0.2-0.17,0.3-0.26
		c0.52-0.53,1.08-1.01,1.62-1.51c0.09-0.06,0.16-0.14,0.25-0.21c0.81-0.75,1.72-1.38,2.54-2.12c0.69-0.62,1.35-1.27,1.91-2.01
		c0.04-0.06,0.1-0.11,0.14-0.16c0.06-0.06,0.11-0.13,0.16-0.2c0.07-0.1,0.18-0.16,0.21-0.29c0.16,0.07,0.04,0.21,0.06,0.31
		c0.03,0.1-0.02,0.19-0.06,0.28c-0.02,0.17-0.04,0.33-0.07,0.5c-0.04,0.12-0.06,0.24-0.09,0.36c-0.11,0.43-0.21,0.86-0.41,1.26
		C41.3,37.2,41.23,37.37,41.16,37.54z"/>
	<path class="st2" d="M39.5,36.44c-0.41,0.41-0.87,0.78-1.33,1.15c-0.06,0.05-0.13,0.11-0.2,0.16c-1.01,0.76-1.97,1.59-2.88,2.47
		c-0.08,0.05-0.14,0.12-0.2,0.2c-0.97,0.93-1.94,1.86-2.92,2.79c-0.48,0.45-0.99,0.87-1.53,1.25c-0.03,0.06-0.1,0.06-0.14,0.11
		c-0.42,0.24-0.83,0.52-1.3,0.67c-0.11,0.08-0.26,0.05-0.36,0.14c-0.24,0.05-0.47,0.13-0.71,0.15c-0.84,0.08-1.58-0.22-2.28-0.63
		c-1.21-0.71-2.21-1.7-3.23-2.64c-0.25-0.23-0.5-0.47-0.75-0.71c-0.05-0.05-0.1-0.1-0.15-0.16c-0.55-0.53-1.1-1.05-1.65-1.58
		c-0.81-0.78-1.68-1.5-2.56-2.21c-0.97-0.78-1.91-1.58-2.75-2.49c-0.06-0.06-0.11-0.13-0.16-0.19c-0.07-0.08-0.14-0.17-0.21-0.25
		c-0.05-0.05-0.1-0.1-0.14-0.15c-0.6-0.79-1.15-1.61-1.63-2.48c-0.25-0.44-0.52-0.87-0.7-1.35c-0.04-0.06-0.04-0.13-0.11-0.16
		c-0.09-0.19-0.19-0.38-0.28-0.56c-0.04-0.05-0.05-0.11-0.09-0.16c-0.35-0.66-0.64-1.36-1.02-2.01c0.08-0.15,0.16-0.05,0.24,0
		c0.84,0.59,1.71,1.12,2.5,1.78c0.44,0.38,0.88,0.76,1.32,1.14c0.08,0.07,0.1,0.2,0.23,0.22c0.08,0.09,0.16,0.18,0.26,0.24
		c0.81,0.8,1.6,1.63,2.33,2.51c0.74,0.91,1.38,1.87,1.97,2.88c0.19,0.33,0.4,0.65,0.61,0.97c0.04,0.08,0.11,0.13,0.14,0.21
		c0.39,0.56,0.8,1.11,1.31,1.57c0.05,0.05,0.1,0.11,0.16,0.15c0.67,0.69,1.47,1.19,2.35,1.57c1.69,0.71,3.45,0.89,5.26,0.68
		c0.42-0.05,0.82-0.15,1.24-0.23c0.11-0.05,0.25-0.02,0.35-0.1c0.53-0.17,1.05-0.38,1.56-0.62c0.1-0.02,0.18-0.07,0.26-0.14
		c1.11-0.62,2.05-1.43,2.8-2.44c0.59-0.79,1.1-1.64,1.58-2.51c0.23-0.41,0.49-0.79,0.77-1.17c0.06-0.06,0.1-0.14,0.15-0.2
		c0.56-0.76,1.18-1.47,1.83-2.15c0.69-0.72,1.4-1.44,2.17-2.08c0.22-0.19,0.44-0.39,0.69-0.54c0.05-0.05,0.11-0.09,0.17-0.13
		c0.03-0.02,0.06-0.04,0.09-0.06c0.08-0.04,0.14-0.1,0.2-0.15c0.68-0.49,1.35-0.98,2.03-1.46c0.18-0.13,0.33-0.31,0.55-0.39
		c0.01,0.01,0.02,0.02,0.02,0.03c0,0.01,0,0.02-0.01,0.02c-0.88,1.93-1.88,3.8-2.99,5.61c-0.41,0.67-0.85,1.32-1.36,1.92
		c-0.06,0.06-0.1,0.13-0.16,0.19c-0.36,0.41-0.73,0.82-1.14,1.18C39.6,36.33,39.55,36.39,39.5,36.44z"/>
	<path class="st3" d="M26.37,8.09c0.74,0,1.47,0,2.21,0c0.34,0.04,0.68,0.07,1.03,0.1c0.07,0,0.13,0.01,0.19,0.04
		c0.65,0.07,0.48,0.05,0.48,0.57c0,1.02-0.05,2.05,0.15,3.06c0.06,0.29,0.1,0.57,0.16,0.94c-0.36-0.3-0.69-0.27-1.03-0.11
		c-0.05,0.04-0.12,0.04-0.15,0.1c-0.09,0.09-0.01,0.13,0.05,0.17c0.65,0.34,1.23,0.78,1.8,1.24c0.05,0.05,0.09,0.11,0.16,0.15
		c0.45,0.46,0.89,0.92,1.24,1.47c0.05,0.08,0.09,0.16,0.14,0.23c0.04,0.05,0.05,0.12,0.1,0.16c0.12,0.23,0.24,0.46,0.35,0.69
		c0.08,0.16,0.1,0.27-0.13,0.35c-0.85,0.31-1.63,0.76-2.43,1.18c-0.45,0.24-0.9,0.47-1.35,0.71c-0.05,0.06-0.14,0.05-0.2,0.11
		c-0.43,0.2-0.86,0.42-1.32,0.55c-0.14,0.04-0.27,0.05-0.42,0c-0.76-0.23-1.44-0.62-2.14-0.98c-1.05-0.55-2.07-1.16-3.19-1.59
		c-0.17-0.06-0.18-0.14-0.11-0.3c0.15-0.35,0.34-0.67,0.5-1.01c0.04-0.07,0.11-0.12,0.14-0.2c0.48-0.69,1.05-1.29,1.7-1.81
		c0.07-0.06,0.15-0.11,0.22-0.16c0.05-0.05,0.12-0.08,0.17-0.14c0.34-0.21,0.69-0.41,1.03-0.62c0.13-0.08,0.23-0.18,0.18-0.35
		c-0.05-0.16-0.18-0.2-0.34-0.21c-0.3-0.02-0.49,0.19-0.73,0.3c-0.14,0.07-0.17,0.06-0.14-0.09c0.11-0.19,0.06-0.42,0.14-0.61
		c0.14-0.99,0.17-1.98,0.15-2.98c-0.01-0.21-0.02-0.42-0.03-0.63c-0.01-0.11,0.02-0.18,0.14-0.18C25.51,8.13,25.95,8.17,26.37,8.09z
		"/>
	<path class="st3" d="M20.89,17.94c-0.03-0.09-0.09-0.18-0.08-0.26c0.04-0.27-0.09-0.31-0.33-0.31c-0.52,0.01-1.04,0-1.56,0
		c-0.09,0-0.19-0.04-0.25,0.06c-0.4-0.13-0.78-0.31-1.2-0.41c-0.12-0.03-0.24-0.07-0.36-0.1c-0.1-0.05-0.22-0.03-0.31-0.09
		c-0.64-0.22-1.31-0.34-1.97-0.46c-0.18-0.03-0.35-0.11-0.54-0.1c-0.19,0.01-0.18-0.17-0.25-0.26c-0.28-0.24-0.55-0.25-0.82,0
		c-0.12,0.11-0.27,0.06-0.41,0.05c-0.22-0.01-0.44-0.04-0.73-0.06c0.41-0.32,0.79-0.57,1.11-0.88c0.29-0.28,0.6-0.3,0.95-0.2
		c0.71,0.2,1.42,0.36,2.12,0.6c0.12,0.06,0.25,0.06,0.36,0.14c0.61,0.17,1.19,0.43,1.76,0.69c0.1,0.04,0.2,0.09,0.3,0.13
		c0.1,0.05,0.21,0.08,0.31,0.15c0.12,0.08,0.25,0.14,0.36,0.22c0.16,0.11,0.24,0.09,0.34-0.07c0.12-0.2-0.08-0.22-0.15-0.27
		c-0.54-0.29-1.09-0.58-1.67-0.81c-0.25-0.1-0.5-0.19-0.75-0.29c-0.08-0.05-0.18-0.05-0.25-0.1c-0.12-0.04-0.24-0.07-0.35-0.11
		c-0.08-0.05-0.17-0.05-0.25-0.09c-0.69-0.21-1.39-0.42-2.1-0.56c-0.04-0.01-0.1-0.01-0.09-0.06c0.01-0.04,0.05-0.09,0.09-0.12
		c0.39-0.3,0.75-0.63,1.11-0.97c0.35-0.32,0.69-0.66,1.04-0.98c0.05-0.05,0.1-0.1,0.16-0.15l0,0c0.13-0.02,0.15,0.08,0.2,0.17
		c0.09,0.53,0.17,1.06,0.38,1.56c0.27,0.66,0.71,1.11,1.43,1.26c0.04,0.01,0.08,0.03,0.12,0.05c0.25,0.1,0.51,0.04,0.76,0.07
		c0.46,0.05,0.93,0.06,1.39-0.01c0.17-0.07,0.36-0.07,0.54-0.06c0.31,0.01,0.37,0.06,0.39,0.38c-0.15,0.3-0.31,0.6-0.45,0.91
		c-0.11,0.24-0.21,0.49-0.3,0.74c-0.07,0.19-0.05,0.38,0.01,0.57C20.93,17.91,20.92,17.93,20.89,17.94z"/>
	<path class="st3" d="M36.61,17.42c-0.05-0.05-0.12-0.05-0.19-0.05c-0.6,0-1.2,0.01-1.8,0.01c-0.14,0-0.17,0.31-0.22,0.35
		c0.02-0.7-0.34-1.28-0.65-1.87c-0.05-0.1-0.12-0.18-0.1-0.3c0-0.24,0.04-0.3,0.3-0.27c0.43,0.05,0.85,0.04,1.28,0.04
		c0.22,0,0.44,0,0.65,0c0.27-0.02,0.54,0.06,0.8-0.05c0.16-0.09,0.35-0.09,0.52-0.17c0.58-0.27,0.89-0.76,1.11-1.34
		c0.1-0.28,0.17-0.56,0.21-0.85c0.01-0.08,0-0.17,0.08-0.23c0.07-0.1,0.01-0.24,0.11-0.35c0.48,0.38,0.9,0.83,1.35,1.24
		c0.06,0.04,0.11,0.1,0.16,0.15c0.3,0.26,0.59,0.51,0.91,0.79c-0.72,0.19-1.41,0.36-2.08,0.58c-0.63,0.2-1.25,0.43-1.86,0.69
		c-0.46,0.19-0.89,0.42-1.33,0.64c-0.08,0.04-0.15,0.1-0.24,0.14c-0.14,0.07-0.11,0.16-0.04,0.24c0.06,0.07,0.11,0.18,0.26,0.07
		c0.27-0.19,0.57-0.35,0.88-0.48c0.05-0.04,0.11-0.06,0.16-0.09c1.38-0.62,2.82-1.05,4.29-1.42c0.17-0.03,0.34-0.15,0.5,0.01
		c0.36,0.35,0.79,0.6,1.17,0.94c0.04,0.04,0.09,0.07,0.15,0.12c-0.27,0.09-0.51,0.08-0.76,0.1c-0.05,0.03-0.1,0.04-0.15-0.01
		c-0.02-0.02-1.21,0.19-1.36,0.22c-0.32,0.07-0.64,0.12-0.96,0.19c-0.2,0.04-0.41,0.07-0.61,0.14
		C38.29,16.86,37.43,17.09,36.61,17.42z"/>
	<path class="st3" d="M24.3,11.21c0.17,0.12,0.16,0.3,0.12,0.47c-0.11,0.45-0.17,0.9-0.3,1.34c-0.07,0.22-0.22,0.32-0.38,0.44
		c-0.4,0.31-0.78,0.65-1.15,1.04c-0.03-0.25-0.02-0.47-0.11-0.67c-0.13-0.19-0.07-0.42-0.12-0.63c-0.27-1.04-0.72-1.95-1.65-2.54
		c-0.17-0.11-0.37-0.16-0.54-0.26c-0.33-0.12-0.67-0.1-1,0c-0.04,0.01-0.08,0.02-0.12,0.02c-0.05-0.01-0.11-0.02-0.1-0.1l0,0
		c0.08-0.05,0.2-0.07,0.2-0.2c0.28-0.28,0.62-0.47,0.94-0.71c0.44-0.33,0.93-0.58,1.39-0.89c0.11-0.07,0.22-0.11,0.35-0.08
		c0.53-0.04,1.03,0.03,1.47,0.35c0.07,0.08,0.15,0.14,0.24,0.2c0.37,0.38,0.52,0.86,0.62,1.35C24.19,10.62,24.29,10.91,24.3,11.21z"
		/>
	<path class="st3" d="M30.91,11.28c0.13-0.07,0.12-0.2,0.14-0.31c-0.01-0.02-0.02-0.05-0.01-0.07c0.07-0.18,0.07-0.37,0.1-0.55
		c0.1-0.67,0.33-1.26,0.94-1.64c0.24-0.15,0.51-0.22,0.78-0.26c0.2-0.03,0.41-0.04,0.62-0.05c0.06,0,0.11,0.01,0.16,0.04
		c0.83,0.46,1.61,1.01,2.39,1.56c0.17,0.12,0.01,0.26,0.09,0.37c-0.06,0.07-0.15,0.07-0.23,0.06c-0.27-0.06-0.54-0.02-0.81,0.01
		c-0.09,0-0.17,0.02-0.25,0.07c-0.48,0.21-0.83,0.56-1.15,0.95c-0.07,0.06-0.12,0.15-0.15,0.24c-0.37,0.59-0.59,1.24-0.7,1.92
		c-0.03,0.17-0.02,0.33-0.02,0.5c0,0.1,0.02,0.2-0.07,0.28c-0.25-0.07-0.37-0.3-0.55-0.45c-0.25-0.2-0.48-0.43-0.76-0.6
		c-0.18-0.11-0.27-0.29-0.31-0.49c-0.09-0.42-0.23-0.84-0.24-1.27C30.83,11.46,30.74,11.34,30.91,11.28z"/>
	<path class="st2" d="M40,6.56c0.32,0.95,0.36,1.91,0.21,2.89c-0.03,0.16-0.04,0.33-0.07,0.5c-0.05,0.13-0.02,0.28-0.09,0.41
		c-0.15,0.49-0.29,0.99-0.56,1.46c-0.08-0.04-0.11-0.14-0.19-0.15c-0.05-0.06-0.1-0.11-0.15-0.15c-0.53-0.51-1.11-0.96-1.73-1.35
		c-0.48-0.3-0.5-0.29-0.29-0.83c0.41-1.06,0.86-2.1,1.44-3.08c0.15-0.25,0.32-0.49,0.53-0.69c0.15-0.14,0.28-0.13,0.4,0.03
		c0.17,0.22,0.32,0.45,0.41,0.72C39.96,6.39,39.94,6.49,40,6.56z"/>
	<path class="st2" d="M18.26,8.75c0.11,0.28,0.21,0.56,0.32,0.84c0.05,0.12,0.04,0.19-0.08,0.27c-0.53,0.34-1.07,0.68-1.57,1.07
		c-0.25,0.2-0.5,0.39-0.73,0.61c-0.14,0.13-0.21,0.1-0.27-0.06c-0.19-0.45-0.33-0.91-0.44-1.38c-0.03-0.05-0.04-0.1-0.04-0.16
		c-0.01-0.25-0.07-0.5-0.1-0.76c-0.09-0.82-0.05-1.63,0.17-2.42c0.12-0.42,0.3-0.81,0.57-1.16c0.17-0.21,0.3-0.21,0.51,0.02
		c0.32,0.35,0.54,0.76,0.76,1.17c0.27,0.53,0.51,1.08,0.77,1.63C18.18,8.54,18.21,8.65,18.26,8.75z"/>
	<path class="st4" d="M19.04,10.36c0.03,0,0.06-0.01,0.09-0.01c0.35-0.09,0.71-0.1,1.06,0c1.43,0.44,2.33,2.36,2.28,3.48
		c-0.01,0.2-0.03,0.4,0.03,0.6c0.02,0.07,0.01,0.13-0.03,0.19c-0.27,0.35-0.54,0.7-0.82,1.04c-0.06-0.03-0.08-0.09-0.08-0.15
		c-0.01-0.13-0.08-0.17-0.2-0.15c-0.21,0.02-0.42,0.03-0.62,0.04c-0.49,0.04-0.98,0.06-1.46-0.01c-0.25-0.03-0.52,0.02-0.76-0.08
		c-1.01-0.13-1.47-0.9-1.71-1.71c-0.12-0.38-0.19-0.78-0.21-1.18c-0.02-0.08-0.06-0.17,0-0.25c0-0.22,0-0.44,0.01-0.66
		c0.01-0.17,0.05-0.33,0.25-0.35c0.15-0.01,0.25,0.21,0.22,0.41c-0.01,0.07-0.05,0.16,0.03,0.2c0.05,0.03,0.08-0.03,0.1-0.08
		c-0.01-0.02-0.02-0.04-0.01-0.06c0.09-0.16,0.24-0.26,0.36-0.4c0.07-0.04,0.11-0.1,0.18-0.14c0.22-0.09,0.39-0.23,0.54-0.4
		c0.11-0.07,0.22-0.12,0.33-0.18c0.1-0.07,0.22-0.11,0.35-0.13C18.98,10.39,19.01,10.38,19.04,10.36z"/>
	<path class="st4" d="M32.72,14.39c-0.03-1,0.22-1.93,0.77-2.77c0.04-0.08,0.11-0.13,0.14-0.21c0.31-0.42,0.67-0.77,1.17-0.96
		c0.07-0.04,0.14-0.05,0.2-0.09c0.37-0.08,0.74-0.06,1.11-0.01c0.02,0.05,0.06,0.09,0.11,0.09c0.67,0.07,1.12,0.52,1.57,0.96
		c0.11,0.11,0.24,0.21,0.32,0.37c0.03-0.14,0.06-0.28,0.08-0.42c0.02-0.11,0.09-0.17,0.18-0.18c0.11-0.01,0.18,0.05,0.23,0.16
		c0.12,0.31,0.16,0.63,0.02,0.95c-0.05,0.13-0.03,0.26-0.02,0.4c-0.05,0.8-0.28,1.54-0.83,2.13c-0.27,0.29-0.63,0.46-1.04,0.5
		c-0.27,0.1-0.55,0.06-0.82,0.07c-0.45,0-0.91-0.01-1.36,0c-0.21,0.01-0.41-0.07-0.62-0.06c-0.12,0.01-0.26-0.03-0.27,0.17
		c0,0.04-0.06,0.04-0.1,0.02c-0.23-0.3-0.42-0.64-0.72-0.9C32.74,14.55,32.72,14.48,32.72,14.39z"/>
	<path class="st2" d="M14.73,6.57c0.11-0.54,0.29-1.05,0.61-1.49c0.33-0.46,0.88-0.51,1.45-0.13c0.5,0.34,0.81,0.83,1.12,1.33
		c0.56,0.92,0.93,1.92,1.24,2.95c0.03,0.11,0.06,0.22-0.06,0.29c-0.1,0.06-0.16,0.09-0.22-0.06c-0.43-1.12-0.88-2.24-1.49-3.28
		c-0.16-0.28-0.34-0.54-0.55-0.77c-0.35-0.38-0.7-0.37-1.01,0.03c-0.42,0.55-0.62,1.19-0.74,1.87c-0.18,1-0.09,1.99,0.13,2.98
		c0.11,0.5,0.25,0.99,0.49,1.44c0.07,0.13,0.08,0.24-0.05,0.34c-0.06,0.05-0.11,0.1-0.16,0.15c-0.13,0.13-0.26,0.26-0.39,0.38
		c-0.1,0.1-0.18,0.11-0.21-0.07c-0.05-0.22-0.14-0.43-0.15-0.66c-0.1-0.21-0.09-0.44-0.14-0.67c-0.17-1.22-0.22-2.43-0.06-3.65
		c0.02-0.14,0.04-0.28,0.06-0.42C14.63,6.94,14.65,6.75,14.73,6.57z"/>
	<path class="st3" d="M17.27,17.38c-0.91,0.07-1.82,0.12-2.72,0.22c-0.55,0.06-1.11,0.17-1.65,0.31c-0.07,0.02-0.15,0.03-0.22,0.04
		c-0.06-0.05-0.04-0.12-0.04-0.19c0-0.48-0.29-0.78-0.73-0.76c-0.46,0.02-0.72,0.35-0.67,0.84c0.01,0.05,0.02,0.1,0.03,0.15
		c0.01,0.09,0.05,0.17,0.12,0.22c0.04,0.04,0.09,0.06,0.08,0.13c-0.44,0.09-0.85,0.3-1.26,0.47c-0.29,0.12-0.58,0.26-0.86,0.39
		c0.21-0.43,0.49-0.82,0.76-1.21c0.05-0.07,0.11-0.13,0.15-0.2c0.42-0.51,0.88-0.97,1.37-1.41c0.31-0.07,0.61-0.01,0.91,0.03
		c0.31,0.04,0.63,0.02,0.91,0.21c0.13-0.03,0.27-0.03,0.4,0c0.02,0,0.03,0,0.05-0.01c0.1-0.06,0.2-0.05,0.3,0
		c0.35,0.07,0.71,0.14,1.06,0.22c0.19,0.06,0.38,0.09,0.57,0.14C16.31,17.06,16.8,17.16,17.27,17.38z"/>
	<path class="st3" d="M41.92,17.79c-1.3-0.26-2.62-0.33-3.94-0.41c0.22-0.16,0.5-0.18,0.75-0.25c0.87-0.22,1.74-0.47,2.64-0.52
		c0.19-0.01,0.37-0.01,0.55-0.09c0.46-0.11,0.93-0.09,1.39-0.15c0.18-0.02,0.29,0.1,0.41,0.21c0.09,0.08,0.18,0.17,0.28,0.25
		c0.04,0.06,0.09,0.11,0.15,0.15c0.6,0.6,1.12,1.25,1.57,1.96c0.04,0.06,0.07,0.13,0.1,0.2c-0.19-0.08-0.37-0.17-0.56-0.25
		c-0.06-0.05-0.14-0.06-0.2-0.1c-0.43-0.14-0.82-0.38-1.27-0.46c-0.02-0.12,0.08-0.18,0.13-0.26c0.19-0.3,0.17-0.57-0.04-0.84
		c-0.2-0.25-0.54-0.32-0.87-0.19c-0.26,0.11-0.39,0.36-0.37,0.7c0.01,0.09,0.07,0.2-0.02,0.29c-0.1-0.09-0.22-0.13-0.34-0.15
		C42.16,17.84,42.02,17.86,41.92,17.79z"/>
	<path d="M29.94,27.79c-0.6,0.63-1.26,1.17-2.17,1.29c-0.46,0.06-0.88-0.09-1.27-0.31c-0.44-0.24-0.84-0.55-1.16-0.93
		c0.02-0.1,0.09-0.1,0.17-0.1c1.42,0,2.84,0,4.26,0C29.84,27.74,29.9,27.73,29.94,27.79z"/>
	<path d="M22.83,20.45c-0.34-0.36-0.72-0.7-1.02-1.1c0.06-0.08,0.13-0.05,0.21-0.03c0.85,0.2,1.65,0.5,2.35,1.03
		c0.67,0.51,1.18,1.14,1.36,1.99c0.02,0.09-0.01,0.13-0.09,0.15l0,0c-0.04-0.07-0.13-0.07-0.19-0.11c-0.07-0.03-0.14-0.06-0.21-0.1
		c-0.05-0.07-0.14-0.06-0.19-0.11c-0.73-0.46-1.45-0.95-2.07-1.56C22.93,20.55,22.88,20.5,22.83,20.45z"/>
	<path d="M33.12,19.69c-0.58,0.62-1.17,1.23-1.86,1.73c-0.07,0.04-0.13,0.1-0.2,0.15c-0.42,0.3-0.84,0.6-1.31,0.81
		c-0.09-0.03-0.15,0.07-0.25,0.06c0.04-0.65,0.39-1.16,0.8-1.63c0.06-0.04,0.11-0.09,0.15-0.15c0.78-0.71,1.71-1.09,2.72-1.34
		c0.1-0.03,0.21-0.07,0.16,0.11c-0.02,0.02-0.03,0.04-0.05,0.06C33.23,19.57,33.18,19.64,33.12,19.69z"/>
	<path class="st4" d="M31.06,10.91c0,0.02-0.01,0.03-0.01,0.05c-0.09,0.07-0.08,0.27-0.22,0.24c-0.17-0.04-0.11-0.22-0.13-0.34
		c-0.1-0.71-0.06-1.42,0.05-2.13c0.05-0.29,0.16-0.57,0.32-0.81c0.11-0.16,0.28-0.26,0.51-0.25c0.72,0,1.33,0.28,1.9,0.67
		c0.02,0.03,0.02,0.06-0.01,0.09c-0.25,0.1-0.52,0.05-0.77,0.1C31.89,8.7,31.46,9.24,31.27,10c-0.03,0.11-0.04,0.23-0.06,0.35
		C31.11,10.53,31.15,10.74,31.06,10.91z"/>
	<path class="st4" d="M24.3,11.21c-0.14-0.24-0.16-0.52-0.21-0.79C23.98,9.9,23.82,9.41,23.47,9c-0.06-0.06-0.13-0.11-0.2-0.16
		c-0.32-0.23-0.68-0.33-1.07-0.34c-0.13,0-0.27-0.02-0.39-0.07c-0.02-0.08-0.03-0.14,0.06-0.21c0.21-0.14,0.44-0.2,0.66-0.3
		c0.35-0.15,0.71-0.26,1.11-0.26c0.31,0,0.48,0.17,0.61,0.4c0.19,0.31,0.23,0.68,0.27,1.03c0.09,0.63,0.03,1.25,0,1.88
		C24.53,11.11,24.52,11.28,24.3,11.21z"/>
	<path class="st3" d="M35.91,9.14c-0.26-0.18-0.52-0.36-0.79-0.53c-0.1-0.06-0.13-0.1-0.04-0.21c0.57-0.67,1.15-1.33,1.78-1.93
		c0.1-0.04,0.14,0,0.12,0.1c-0.02,0.08-0.07,0.15-0.11,0.21c-0.14,0.32-0.27,0.64-0.41,0.96c-0.06,0.12-0.11,0.24-0.14,0.36
		c-0.09,0.3-0.18,0.6-0.27,0.89C36.01,9.05,36.04,9.17,35.91,9.14z"/>
	<path class="st3" d="M18.68,6.41c0.62,0.56,1.15,1.2,1.71,1.83c0.06,0.06,0.11,0.13,0.16,0.19c-0.02,0.2-0.22,0.19-0.33,0.29
		c-0.13,0.12-0.3,0.21-0.45,0.31c-0.11,0.07-0.17,0.07-0.21-0.08c-0.13-0.46-0.28-0.92-0.47-1.36c-0.15-0.34-0.3-0.68-0.45-1.02
		C18.62,6.51,18.46,6.39,18.68,6.41z"/>
	<path class="st5" d="M41.13,16.22c-0.01-0.27,0.22-0.44,0.42-0.48c0.2-0.04,0.39,0.06,0.48,0.27c-0.02,0.04-0.03,0.1-0.06,0.1
		C41.7,16.16,41.41,16.32,41.13,16.22z"/>
	<path class="st6" d="M13.21,16.01c0.23-0.37,0.59-0.37,0.82,0c0.01,0.19-0.08,0.26-0.26,0.19c-0.1-0.04-0.21-0.02-0.32-0.03
		C13.35,16.16,13.24,16.14,13.21,16.01z"/>
	<path class="st7" d="M41.92,16.52c-0.15,0.21-0.34,0.19-0.55,0.09C41.54,16.5,41.72,16.47,41.92,16.52z"/>
	<path class="st4" d="M37.82,24.86c-0.28-0.28-0.29-0.66,0.01-0.95c0.35-0.35,0.78-0.52,1.28-0.46c0.28,0.03,0.53,0.14,0.62,0.43
		c0.09,0.3-0.02,0.56-0.24,0.77c-0.07,0.05-0.13,0.11-0.2,0.15c-0.41,0.26-0.85,0.31-1.31,0.15C37.93,24.92,37.87,24.91,37.82,24.86
		z"/>
	<path class="st4" d="M17.57,24.71c-0.11,0.13-0.24,0.24-0.4,0.31c-0.25,0.07-0.51,0.07-0.76,0c-0.16-0.04-0.31-0.12-0.45-0.21
		c-0.07-0.05-0.13-0.11-0.2-0.15c-0.08-0.1-0.17-0.19-0.22-0.3c-0.17-0.39,0.02-0.76,0.44-0.87c0.43-0.11,0.83-0.02,1.2,0.21
		c0.07,0.05,0.13,0.1,0.2,0.16c0.07,0.08,0.14,0.17,0.2,0.25C17.68,24.3,17.67,24.5,17.57,24.71z"/>
	<path class="st8" d="M40.55,22.87c0-0.45,0.33-0.78,0.77-0.78c0.43,0,0.76,0.34,0.76,0.77c0,0.43-0.36,0.78-0.78,0.78
		C40.89,23.63,40.55,23.29,40.55,22.87z"/>
	<path class="st4" d="M13.15,22.85c0-0.43,0.33-0.76,0.77-0.76c0.42,0,0.79,0.36,0.78,0.78c-0.01,0.41-0.37,0.77-0.78,0.77
		C13.51,23.64,13.15,23.27,13.15,22.85z"/>
	<path class="st9" d="M15.83,22.46c0-0.24,0.13-0.4,0.35-0.4c0.2,0,0.36,0.18,0.36,0.4c0,0.22-0.17,0.41-0.36,0.41
		C15.99,22.87,15.83,22.69,15.83,22.46z"/>
	<path class="st10" d="M39.28,22.13c0.15,0.15,0.19,0.32,0.1,0.51c-0.07,0.15-0.19,0.27-0.38,0.22c-0.16-0.04-0.28-0.14-0.28-0.33
		c0-0.08,0.01-0.17,0.01-0.25C38.94,22.03,39,22.01,39.28,22.13z"/>
	<path class="st4" d="M42.62,18.04c-0.01-0.03-0.01-0.07-0.02-0.1c-0.12-0.41,0.02-0.78,0.35-0.95c0.34-0.17,0.77-0.07,1,0.22
		c0.24,0.31,0.2,0.73-0.08,1.03c-0.03,0.03-0.06,0.06-0.09,0.09C43.23,18.57,42.93,18.5,42.62,18.04z"/>
	<path class="st4" d="M11.21,18.03c-0.16-0.47-0.03-0.86,0.35-1.05c0.36-0.17,0.8-0.05,1.02,0.28c0.13,0.21,0.14,0.44,0.09,0.67
		c-0.3,0.54-0.62,0.64-1.22,0.4c-0.03-0.03-0.07-0.07-0.1-0.1C11.3,18.17,11.24,18.11,11.21,18.03z"/>
	<path class="st8" d="M42.56,19.92c-0.35-0.01-0.56-0.23-0.56-0.57c0.01-0.34,0.26-0.59,0.59-0.58c0.32,0.01,0.58,0.28,0.58,0.6
		C43.17,19.71,42.93,19.92,42.56,19.92z"/>
	<path class="st8" d="M13.12,19.7c-0.18,0.22-0.59,0.29-0.79,0.15c-0.24-0.17-0.32-0.5-0.19-0.78c0.11-0.23,0.44-0.37,0.69-0.28
		c0.31,0.1,0.46,0.38,0.39,0.71C13.19,19.57,13.17,19.65,13.12,19.7z"/>
	<path class="st9" d="M44,19.91c0.25-0.01,0.41,0.13,0.49,0.35c0.07,0.2-0.05,0.36-0.2,0.48c-0.16,0.13-0.39,0.08-0.54-0.09
		c-0.18-0.2-0.17-0.38,0.05-0.64C43.85,19.97,43.93,19.95,44,19.91z"/>
	<path class="st9" d="M11.35,20.77c-0.27,0.08-0.49-0.01-0.57-0.23c-0.09-0.25,0.01-0.48,0.26-0.59c0.25-0.11,0.58,0.16,0.56,0.45
		c-0.01,0.07-0.03,0.15-0.05,0.22C11.49,20.66,11.42,20.71,11.35,20.77z"/>
	<path class="st4" d="M25.59,9.35c0.02-0.23,0.08-0.44,0.19-0.64c0.19-0.33,0.44-0.36,0.65-0.06c0.22,0.32,0.27,0.69,0.25,1.07
		c-0.01,0.09-0.02,0.18-0.03,0.27c-0.04,0.1-0.03,0.22-0.09,0.31c-0.12,0.18-0.19,0.44-0.48,0.39c-0.27-0.04-0.33-0.3-0.42-0.51
		c-0.05-0.12-0.05-0.26-0.07-0.39C25.53,9.65,25.53,9.5,25.59,9.35z"/>
	<path class="st4" d="M29.44,10.36c-0.08,0.17-0.16,0.34-0.38,0.35c-0.24,0.01-0.34-0.19-0.41-0.36c-0.2-0.5-0.21-1.01-0.02-1.52
		c0.13-0.33,0.3-0.43,0.55-0.35c0.06,0.04,0.1,0.1,0.16,0.14c0.01,0.01,0.02,0.01,0.03,0.02c0.06,0.1,0.1,0.21,0.15,0.31
		c0.08,0.4,0.11,0.8,0,1.2C29.47,10.21,29.48,10.29,29.44,10.36z"/>
	<path class="st11" d="M29.58,11.58c0,0.25-0.21,0.44-0.45,0.44c-0.24,0-0.43-0.2-0.43-0.43c0-0.25,0.21-0.47,0.44-0.46
		C29.37,11.13,29.59,11.35,29.58,11.58z"/>
	<path class="st12" d="M25.81,11.81c-0.03-0.19-0.08-0.39,0.09-0.54c0.16-0.14,0.34-0.22,0.54-0.07c0.18,0.13,0.27,0.3,0.19,0.52
		c-0.08,0.22-0.25,0.33-0.49,0.3c-0.05-0.01-0.1-0.03-0.14-0.04C25.94,11.92,25.86,11.88,25.81,11.81z"/>
	<path class="st13" d="M27.71,11.19c0.22,0,0.42,0.21,0.42,0.42c0,0.23-0.19,0.41-0.43,0.41c-0.24,0-0.4-0.18-0.39-0.43
		C27.31,11.38,27.5,11.19,27.71,11.19z"/>
	<path class="st12" d="M27.26,8.43c0.22-0.17,0.37-0.18,0.55-0.01c0.14,0.13,0.17,0.39,0.04,0.55c-0.12,0.16-0.34,0.19-0.59,0.06
		C27.09,8.75,27.09,8.68,27.26,8.43z"/>
	<path class="st14" d="M27.67,9.95c0.18,0.12,0.21,0.27,0.08,0.44c-0.12,0.16-0.28,0.17-0.41,0.04c-0.15-0.15-0.15-0.32,0.02-0.47
		C27.47,9.89,27.57,9.88,27.67,9.95z"/>
	<path class="st2" d="M21.17,14.77c-0.05,0.23-0.25,0.17-0.38,0.18c-0.58,0.07-1.17,0.05-1.75-0.05c-0.39-0.07-0.76-0.2-1.08-0.43
		c-0.19-0.14-0.32-0.33-0.44-0.54c-0.03-0.07-0.05-0.14-0.1-0.21c-0.02-0.05-0.04-0.1-0.06-0.15c-0.14-0.38-0.16-0.77-0.09-1.16
		c0.19-0.46,0.45-0.86,0.85-1.16c0.07-0.04,0.13-0.1,0.2-0.15l0,0c0.24,0.02,0.04,0.14,0.06,0.22c-0.06,0.17-0.21,0.29-0.27,0.46
		c-0.07,0.15-0.14,0.3-0.16,0.47c0.01,0.07-0.01,0.13-0.05,0.18c-0.01,0.03,0.02,0.02,0.02,0.01c-0.01-0.06,0.05-0.11,0.03-0.18
		c-0.01-0.14,0.09-0.24,0.13-0.36c0.05-0.11,0.14-0.19,0.24-0.27c0.09-0.05,0.15-0.13,0.23-0.18c0.18-0.08,0.36-0.08,0.54-0.01
		c0.07,0.06,0.12,0.13,0.19,0.19c0.06,0.07,0.07,0.16,0.12,0.24c0.14,0.41-0.02,0.77-0.21,1.12c-0.15,0.23-0.31,0.43-0.58,0.54
		c-0.15,0.06-0.29,0.08-0.43-0.02c0.46,0.96,1.65,1.34,2.57,0.82c0.07-0.04,0.15-0.08,0.22-0.13c0.07-0.04,0.13-0.12,0.22-0.07
		c0.08,0.05,0.03,0.14,0.04,0.21C21.23,14.5,21.24,14.64,21.17,14.77z"/>
	<path class="st15" d="M21.17,14.77c0.02-0.16,0.03-0.31,0.05-0.47c0-0.05,0.02-0.11-0.04-0.13c-0.05-0.02-0.08,0.02-0.11,0.05
		c-0.73,0.54-1.48,0.56-2.25,0.12c-0.35-0.2-0.6-0.51-0.76-0.92c0.49,0.17,0.75,0.06,1.07-0.4c0.12,0.13,0.12,0.31,0.17,0.46
		c0.12,0.36,0.34,0.49,0.71,0.42c0.09-0.02,0.13-0.09,0.18-0.16c0.33-0.44,0.32-0.94,0.29-1.45c0.05-0.17,0.16-0.31,0.24-0.47
		c0.23,0.4,0.34,0.84,0.43,1.29c0.1,0.46,0.13,0.92,0.11,1.39C21.25,14.59,21.27,14.7,21.17,14.77z"/>
	<path class="st16" d="M19.08,11.52c-0.19-0.1-0.37-0.07-0.55,0c-0.07,0.04-0.14,0.1-0.2,0.16c-0.07,0.08-0.14,0.16-0.21,0.25
		c-0.12-0.02-0.07-0.09-0.05-0.15c0.04-0.17,0.18-0.29,0.26-0.45c0.09-0.14,0.18-0.27,0.33-0.36c0.05-0.06,0.15-0.07,0.19-0.16
		c0.6-0.22,1.04-0.11,1.46,0.37c0.09,0.1,0.2,0.2,0.24,0.34c-0.16,0.07-0.33-0.01-0.48,0.03c-0.27-0.05-0.5-0.01-0.64,0.26
		c-0.02,0.04-0.06,0.06-0.11,0.05c-0.06-0.05-0.01-0.15-0.08-0.19C19.2,11.61,19.15,11.56,19.08,11.52z"/>
	<path class="st17" d="M20.04,11.51c0.17-0.07,0.33-0.05,0.5,0.01c0.05,0.1,0.15,0.18,0.16,0.3c0.02,0.18-0.08,0.32-0.2,0.45
		c-0.25,0.17-0.51,0.1-0.67-0.17C19.7,11.88,19.79,11.64,20.04,11.51z"/>
	<path class="st2" d="M36.76,11.02c0.63,0.37,1.08,0.87,1.22,1.61c0.04,0.07-0.12,1.14-0.41,1.54c-0.26,0.36-0.62,0.56-1.05,0.64
		c-0.1,0.04-0.22,0.03-0.32,0.09c-0.63,0.13-1.27,0.11-1.91,0.04c-0.18-0.02-0.27-0.09-0.26-0.28c0.01-0.17,0-0.35-0.01-0.53
		c0.02-0.01,0.04-0.01,0.07,0c0.06,0.05,0.13,0.1,0.21,0.12c0.2,0.08,0.39,0.18,0.61,0.25c0.92,0.29,1.99-0.3,2.29-1.3
		c0.11-0.36,0.16-0.72,0.02-1.08c-0.27,0.3-0.42,0.32-0.77,0.14c-0.07-0.07-0.13-0.16-0.15-0.26c0-0.39,0.11-0.52,0.54-0.61
		c-0.04-0.09-0.14-0.14-0.16-0.25C36.69,11.08,36.71,11.04,36.76,11.02z"/>
	<path class="st18" d="M36.47,12.22c0.37,0.16,0.42,0.15,0.78-0.22c0.26,0.74,0.08,1.4-0.39,1.96c-0.48,0.57-1.11,0.78-1.85,0.65
		c-0.28-0.05-0.52-0.18-0.76-0.31c-0.04-0.06-0.11-0.09-0.16-0.14c-0.02-0.01-0.03-0.02-0.05-0.02c-0.01-0.31-0.01-0.62,0.04-0.93
		c0.04,0.02,0.06,0.06,0.07,0.1c0.05,0.17,0.16,0.19,0.31,0.12c0.16-0.08,0.31-0.17,0.42-0.31c0.05-0.06,0.07-0.16,0.19-0.13
		c0.07,0.09,0.04,0.22,0.12,0.3c0.07,0.13,0.13,0.27,0.22,0.4c0.25,0.33,0.6,0.31,0.82-0.03c0.24-0.36,0.23-0.76,0.2-1.17
		C36.43,12.39,36.38,12.29,36.47,12.22z"/>
	<path class="st19" d="M35.04,12.99c-0.14,0.2-0.29,0.37-0.52,0.47c-0.32,0.13-0.43,0.08-0.44-0.25c0.06-0.22,0.11-0.45,0.17-0.67
		c0.08-0.07,0.05-0.18,0.09-0.26c0.1-0.29,0.21-0.57,0.41-0.81c0.23-0.05,0.39,0.03,0.48,0.24c0.04,0.08,0.04,0.18,0.07,0.26
		c0.08,0.31-0.02,0.6-0.13,0.89C35.13,12.89,35.1,12.96,35.04,12.99z"/>
	<path class="st15" d="M35.24,11.95c-0.06-0.26-0.16-0.5-0.49-0.5c0.21-0.39,0.5-0.67,0.95-0.75c0.12-0.06,0.24-0.05,0.36,0
		c0.02,0,0.03,0.01,0.05,0.01c0.09,0.05,0.18,0.09,0.28,0.12c0.11,0.1,0.28,0.12,0.33,0.28c0.09,0.1,0.18,0.21,0.31,0.35
		c-0.19,0.01-0.36-0.04-0.49,0.07c-0.13,0.11-0.17,0.25-0.18,0.41c-0.1,0.03-0.1-0.06-0.13-0.1c-0.22-0.42-0.77-0.42-0.91,0.01
		C35.3,11.9,35.28,11.93,35.24,11.95z"/>
	<path d="M20.04,11.51c-0.28,0.28-0.22,0.48-0.09,0.66c0.16,0.2,0.35,0.14,0.55,0.1c0.1,0.55,0.08,1.08-0.31,1.53
		c-0.05,0.05-0.09,0.11-0.16,0.14c-0.35,0.12-0.61,0.01-0.77-0.36c-0.08-0.18-0.14-0.37-0.15-0.57c0.19-0.36,0.36-0.72,0.19-1.15
		C19.54,11.47,19.7,11.39,20.04,11.51z"/>
	<path d="M35.24,11.95c0.03-0.25,0.16-0.42,0.4-0.48c0.26-0.06,0.46,0.05,0.6,0.27c0.04,0.07,0.08,0.14,0.11,0.22
		c0.04,0.09,0.08,0.18,0.12,0.27c0.05,0.36,0.09,0.72-0.01,1.07c-0.01,0.05-0.02,0.1-0.04,0.14c-0.14,0.27-0.25,0.59-0.63,0.56
		c-0.42-0.03-0.54-0.37-0.66-0.7c-0.1-0.13-0.07-0.28-0.05-0.43C35.23,12.57,35.32,12.28,35.24,11.95z"/>
</g>
<path class="st1" d="M35.36,18.39"/>
</svg>
