<svg id="Слой_1" data-name="Слой 1" xmlns="http://www.w3.org/2000/svg" xmlns:xlink="http://www.w3.org/1999/xlink" viewBox="0 0 222 100"><defs><style>.cls-1{fill:none;}.cls-2{fill:#ea5419;}.cls-3{fill:#fff;}.cls-4{clip-path:url(#clip-path);}.cls-5{clip-path:url(#clip-path-2);}.cls-6{clip-path:url(#clip-path-3);}.cls-7{clip-path:url(#clip-path-4);}.cls-8{clip-path:url(#clip-path-5);}.cls-9{clip-path:url(#clip-path-6);}.cls-10{clip-path:url(#clip-path-7);}</style><clipPath id="clip-path" transform="translate(0 0)"><polygon class="cls-1" points="137.25 30.84 129.31 49.51 137.46 49.51 145.43 30.84 137.25 30.84"/></clipPath><clipPath id="clip-path-2" transform="translate(0 0)"><path class="cls-1" d="M163.91,30.84,152.13,44.52,158,30.84h-8.24L143,46.75a1.9,1.9,0,0,0,1.57,2.78h8.3a4.19,4.19,0,0,0,2.91-1.46l14.76-17.23Z"/></clipPath><clipPath id="clip-path-3" transform="translate(0 0)"><path class="cls-1" d="M175.69,30.84a4.31,4.31,0,0,0-4.4,2.37l-5.56,13c-.92,1.93.55,3.29,2.58,3.29h13.16l1.74-4.08H175c-.34,0-.48-.11-.52-.21a.61.61,0,0,1,0-.53l1.11-2.64,9,0,1.72-4h-9l1.06-2.48c.07-.14.26-.6,1.2-.6h8.09l1.74-4.11Z"/></clipPath><clipPath id="clip-path-4" transform="translate(0 0)"><path class="cls-1" d="M83.49,21.62l7.17,5.32H98.1a2.15,2.15,0,0,1,2,.8,2.5,2.5,0,0,1,.13,2.05L95,41.9c-.52,1.14-1.66,2.31-6,2.31H83.79l6.39-15H81.77L73.1,49.55H91.33c8.45,0,9.75-2.36,11.59-6.49l4.19-9.69c1-2.41,2.18-5.78.28-8.59-1.68-2.45-4.38-3.16-7.15-3.16Z"/></clipPath><clipPath id="clip-path-5" transform="translate(0 0)"><path class="cls-1" d="M112.65,30.84l-8,18.67h8.18l6.22-14.58H122c1.26,0,1.78.33,2,.79,1,2.83-7.5,6.44-7.5,6.44L129,54.88h1.32l-6.26-12c1-.54,7.48-2.58,7.23-7.71-.13-2.52-2.2-4.38-7.95-4.38Z"/></clipPath><clipPath id="clip-path-6" transform="translate(0 0)"><polygon class="cls-1" points="71.99 30.84 69.37 37.13 75.11 37.13 77.81 30.84 71.99 30.84"/></clipPath><clipPath id="clip-path-7" transform="translate(0 0)"><path class="cls-1" d="M54.3,21.62C46.9,21.62,43.67,24,42,27.7l-3.71,8.61C33.23,47,40,49.53,44.93,49.53H60.75l8-18.67H59.83l-9,6.27h6.73l-3,7.08H46.25s-3,0-1.57-3.25l5-11.57C50.52,27.44,52,27,53.9,27H65.38l7.74-5.32H54.3Z"/></clipPath></defs><title>logo-g-drive</title><rect class="cls-2" width="222" height="100"/><polygon id="SVGID" class="cls-3" points="137.25 30.84 129.31 49.51 137.46 49.51 145.43 30.84 137.25 30.84"/><g class="cls-4"><rect class="cls-3" x="129.31" y="30.84" width="16.12" height="18.67"/></g><path id="SVGID-2" data-name="SVGID" class="cls-3" d="M163.91,30.84,152.13,44.52,158,30.84h-8.24L143,46.75a1.9,1.9,0,0,0,1.57,2.78h8.3a4.19,4.19,0,0,0,2.91-1.46l14.76-17.23Z" transform="translate(0 0)"/><g class="cls-5"><rect class="cls-3" x="142.37" y="30.84" width="28.19" height="18.67"/></g><path id="SVGID-3" data-name="SVGID" class="cls-3" d="M175.69,30.84a4.31,4.31,0,0,0-4.4,2.37l-5.56,13c-.92,1.93.55,3.29,2.58,3.29h13.16l1.74-4.08H175c-.34,0-.48-.11-.52-.21a.61.61,0,0,1,0-.53l1.11-2.64,9,0,1.72-4h-9l1.06-2.48c.07-.14.26-.6,1.2-.6h8.09l1.74-4.11Z" transform="translate(0 0)"/><g class="cls-6"><rect class="cls-3" x="164.81" y="30.84" width="24.61" height="18.67"/></g><path id="SVGID-4" data-name="SVGID" class="cls-3" d="M83.49,21.62l7.17,5.32H98.1a2.15,2.15,0,0,1,2,.8,2.5,2.5,0,0,1,.13,2.05L95,41.9c-.52,1.14-1.66,2.31-6,2.31H83.79l6.39-15H81.77L73.1,49.55H91.33c8.45,0,9.75-2.36,11.59-6.49l4.19-9.69c1-2.41,2.18-5.78.28-8.59-1.68-2.45-4.38-3.16-7.15-3.16Z" transform="translate(0 0)"/><g class="cls-7"><rect class="cls-3" x="73.1" y="21.62" width="36.2" height="27.92"/></g><path id="SVGID-5" data-name="SVGID" class="cls-3" d="M112.65,30.84l-8,18.67h8.18l6.22-14.58H122c1.26,0,1.78.33,2,.79,1,2.83-7.5,6.44-7.5,6.44L129,54.88h1.32l-6.26-12c1-.54,7.48-2.58,7.23-7.71-.13-2.52-2.2-4.38-7.95-4.38Z" transform="translate(0 0)"/><g class="cls-8"><rect class="cls-3" x="104.68" y="30.84" width="26.81" height="24.06"/></g><polygon id="SVGID-6" data-name="SVGID" class="cls-3" points="71.99 30.84 69.37 37.13 75.11 37.13 77.81 30.84 71.99 30.84"/><g class="cls-9"><rect class="cls-3" x="69.37" y="30.84" width="8.43" height="6.27"/></g><path id="SVGID-7" data-name="SVGID" class="cls-3" d="M54.3,21.62C46.9,21.62,43.67,24,42,27.7l-3.71,8.61C33.23,47,40,49.53,44.93,49.53H60.75l8-18.67H59.83l-9,6.27h6.73l-3,7.08H46.25s-3,0-1.57-3.25l5-11.57C50.52,27.44,52,27,53.9,27H65.38l7.74-5.32H54.3Z" transform="translate(0 0)"/><g class="cls-10"><rect class="cls-3" x="33.26" y="21.62" width="39.86" height="27.92"/></g><polygon class="cls-3" points="162.84 66.05 157.48 78.67 151.96 78.67 157.35 66.05 162.84 66.05"/><path class="cls-3" d="M130.25,69.13l-.73,1.68h6.18l-1.19,2.76h-6.17l-.79,1.81a.34.34,0,0,0,0,.35.39.39,0,0,0,.35.15h5.6l-1.17,2.79h-9c-1.39,0-2.41-.93-1.79-2.27l3.8-8.88a3,3,0,0,1,3-1.62h9.32l-1.19,2.81H131C130.42,68.71,130.29,69,130.25,69.13Z" transform="translate(0 0)"/><path class="cls-3" d="M125.56,61.73l-7.17,16.94h-5.7s4.48-10.61,5.09-12.08c.27-.62.19-.56-.15-.18-1.53,1.8-6.2,7.25-9.09,10.58-1.3,1.51-1.57,1.68-2.56,1.68h-3c-1.34,0-1.32-.61-1.21-1.81.21-2.51.86-8.8,1-10.37,0-.57,0-.46-.19-.13-.71,1.72-5.26,12.33-5.26,12.33H93.34l7.4-17.48c.57-1.43.65-1.43,2-1.43h3.82c1.47,0,1.89.21,1.72,1.74-.17,1.7-1.09,11.11-1.09,11.11,0,.19.19.15.31,0S117.47,61,117.47,61a2.85,2.85,0,0,1,2.64-1.26h4.63C126,59.76,126.21,60.16,125.56,61.73Z" transform="translate(0 0)"/><path class="cls-3" d="M102.84,59.76c-1.36,0-1.45,0-2,1.43L93.41,78.67h3.92s4.54-10.63,5.26-12.33c.14-.33.25-.44.18.13-.14,1.55-.77,7.86-1,10.37-.11,1.2-.15,1.81,1.22,1.81h3c1,0,1.26-.15,2.56-1.68l9.1-10.59c.33-.37.42-.41.14.19-.62,1.49-5.09,12.08-5.09,12.08h5.68l7.15-16.94c.65-1.57.44-2-.72-2h-4.63A2.86,2.86,0,0,0,117.59,61s-9.85,11.46-9.93,11.61-.32.17-.32,0c0,0,.93-9.41,1.09-11.11.15-1.51-.25-1.74-1.72-1.74-.75,0-3.1,0-3.87,0" transform="translate(0 0)"/><path class="cls-3" d="M151.11,66h-11l-5.38,12.64v0h11.46A4.86,4.86,0,0,0,151,75.52c.34-.86,1.26-3,2.35-5.51C154.27,67.91,153.43,66,151.11,66Zm-3.27,4.88-1.45,3.4c-.55,1.3-.88,1.65-2.58,1.63h-2.39l3-7.1h2.08C147.9,68.82,148.25,69.86,147.84,70.89Z" transform="translate(0 0)"/><path class="cls-3" d="M151.27,66h-11l-5.39,12.64,11.47,0a4.86,4.86,0,0,0,4.84-3.15c.33-.86,1.26-3,2.35-5.51C154.44,67.91,153.58,66,151.27,66ZM148,70.89c-.42,1-1.32,3.1-1.44,3.4-.55,1.3-.88,1.65-2.58,1.63h-2.39l3-7.1h2.07C148.07,68.82,148.42,69.86,148,70.89Z" transform="translate(0 0)"/><path class="cls-3" d="M176.36,66h-4.69a2.73,2.73,0,0,0-2,1l-10,11.68h4.5l1.93-2.27h5.07l-.35,2.27h5.07s1.43-8.91,1.74-10.8C177.85,66.64,177.37,66,176.36,66Zm-4.09,3.81c-.1.61-.6,3.75-.6,3.75h-3.06s3-3.64,3.33-4C172,69.51,172.36,69.28,172.27,69.8Z" transform="translate(0 0)"/></svg>